<?xml version="1.0" standalone="no"?>
<!DOCTYPE svg PUBLIC "-//W3C//DTD SVG 20010904//EN"
 "http://www.w3.org/TR/2001/REC-SVG-20010904/DTD/svg10.dtd">
<svg version="1.0" xmlns="http://www.w3.org/2000/svg"
 width="212.000000pt" height="43.000000pt" viewBox="0 0 212.000000 43.000000"
 preserveAspectRatio="xMidYMid meet">

<g transform="translate(0.000000,43.000000) scale(0.100000,-0.100000)"
fill="#000000" stroke="none">
<path d="M270 419 c-47 -5 -110 -15 -140 -23 l-55 -14 55 6 c91 11 281 7 342
-7 152 -33 169 -120 38 -192 l-35 -20 35 7 c49 8 120 41 147 66 51 48 15 121
-76 153 -39 14 -71 18 -191 29 -19 2 -73 -1 -120 -5z"/>
<path d="M400 365 c112 -26 138 -79 70 -147 -27 -26 -28 -29 -7 -23 51 16 102
51 112 79 8 25 6 31 -18 52 -32 27 -78 41 -162 49 l-60 5 65 -15z"/>
<path d="M767 373 c-16 -15 -6 -43 14 -43 20 0 21 -4 15 -47 -10 -71 -16 -83
-36 -83 -16 0 -30 -18 -30 -41 0 -11 190 -12 206 -1 6 4 15 34 20 67 l9 60 32
-68 c28 -58 36 -68 55 -65 21 3 24 12 36 86 7 46 19 90 27 99 25 24 18 43 -15
43 -34 0 -43 -14 -57 -90 l-8 -45 -29 68 c-23 55 -32 67 -51 67 -26 0 -31 -9
-40 -90 -10 -86 -12 -90 -51 -90 -33 0 -35 2 -30 28 3 15 8 44 12 64 4 28 11
38 28 40 13 2 22 11 24 26 3 21 0 22 -61 22 -35 0 -67 -3 -70 -7z"/>
<path d="M1199 357 c-19 -12 -42 -40 -53 -61 -16 -32 -17 -44 -7 -76 14 -48
31 -61 84 -67 53 -5 116 29 97 52 -9 11 -17 12 -30 5 -32 -17 -78 -12 -90 9
-16 31 -12 69 10 91 24 24 80 27 80 5 0 -9 9 -15 25 -15 21 0 25 5 25 30 0 24
-6 33 -26 40 -41 16 -79 12 -115 -13z"/>
<path d="M1431 363 c-73 -36 -95 -131 -42 -184 34 -34 74 -38 128 -12 75 35
97 130 44 184 -34 34 -77 38 -130 12z m93 -49 c22 -21 20 -56 -5 -88 -27 -35
-72 -35 -95 -1 -40 61 48 141 100 89z"/>
<path d="M1681 362 c-41 -22 -71 -73 -71 -120 0 -45 46 -92 90 -92 42 0 100
26 100 44 0 20 -19 31 -33 17 -6 -6 -26 -11 -44 -11 -59 0 -79 63 -35 113 19
22 82 24 82 2 0 -9 9 -15 25 -15 20 0 25 5 25 24 0 52 -75 72 -139 38z"/>
<path d="M1855 359 c-4 -13 -2 -25 5 -29 15 -9 3 -117 -15 -128 -7 -4 -16 -17
-19 -29 -7 -22 -5 -23 43 -23 47 0 51 2 51 24 0 13 -4 26 -9 28 -13 5 9 122
25 131 8 4 14 17 14 27 0 17 -7 20 -44 20 -37 0 -46 -4 -51 -21z"/>
<path d="M1975 359 c-4 -12 -2 -24 4 -28 7 -5 8 -25 1 -66 -5 -33 -10 -73 -10
-88 l0 -28 67 3 c64 3 67 4 74 31 8 31 -13 49 -34 28 -6 -6 -22 -11 -34 -11
-26 0 -26 -9 -4 115 11 59 8 65 -29 65 -20 0 -31 -6 -35 -21z"/>
<path d="M248 355 c84 -16 147 -44 147 -64 0 -15 -26 -36 -139 -116 -57 -41
-108 -102 -119 -143 -6 -27 -3 -27 32 -3 50 36 136 54 235 49 86 -4 89 -4 56
10 -19 7 -60 18 -93 24 -75 13 -73 27 13 91 36 26 69 59 74 72 20 52 -46 82
-197 90 l-82 5 73 -15z"/>
<path d="M801 68 c1 -27 3 -29 6 -9 l5 25 19 -25 19 -24 -1 35 c0 28 -2 31 -9
15 -7 -18 -8 -19 -15 -2 -12 28 -25 19 -24 -15z"/>
<path d="M884 85 c-9 -23 4 -47 23 -43 20 4 30 35 15 50 -6 6 -8 0 -5 -16 4
-20 1 -26 -12 -26 -13 0 -16 6 -13 25 6 28 1 33 -8 10z"/>
<path d="M961 84 c0 -11 3 -14 6 -6 3 7 2 16 -1 19 -3 4 -6 -2 -5 -13z"/>
<path d="M983 73 c-7 -15 -11 -28 -9 -31 6 -6 28 38 24 48 -2 5 -9 -3 -15 -17z"/>
<path d="M1030 75 c-6 -15 -8 -30 -5 -33 3 -3 5 0 5 6 0 16 27 15 34 0 3 -7 3
-2 0 12 -10 40 -22 46 -34 15z"/>
<path d="M1097 93 c-4 -3 -7 -14 -7 -23 0 -21 26 -45 34 -32 3 6 -1 12 -9 16
-18 7 -20 32 -2 39 6 3 7 6 1 6 -6 1 -14 -2 -17 -6z"/>
<path d="M1171 74 c-6 -15 -9 -29 -6 -32 3 -3 5 0 5 6 0 16 27 15 34 0 3 -7 3
-2 0 12 -10 39 -19 43 -33 14z"/>
<path d="M1236 85 c-8 -22 4 -45 24 -45 21 0 37 37 23 51 -6 6 -9 1 -9 -13 1
-14 -5 -23 -14 -23 -10 0 -14 8 -13 23 3 25 -2 29 -11 7z"/>
<path d="M1350 70 c0 -22 5 -30 18 -30 14 0 15 2 2 10 -13 9 -13 11 0 20 11 7
11 10 2 10 -7 0 -10 5 -7 10 3 6 1 10 -4 10 -6 0 -11 -13 -11 -30z"/>
<path d="M1416 75 c-4 -15 -5 -30 -1 -33 3 -3 5 3 5 14 1 19 1 19 15 0 18 -24
19 -9 1 23 l-13 24 -7 -28z"/>
<path d="M1456 85 c-3 -8 -1 -15 4 -15 6 0 10 7 10 15 0 8 -2 15 -4 15 -2 0
-6 -7 -10 -15z"/>
<path d="M1544 85 c-9 -23 3 -45 23 -44 17 1 17 2 0 6 -14 4 -18 12 -14 29 5
27 -1 32 -9 9z"/>
<path d="M1612 70 c0 -19 2 -27 5 -17 2 9 2 25 0 35 -3 9 -5 1 -5 -18z"/>
<path d="M1651 73 c-1 -25 3 -33 17 -33 11 0 13 3 6 8 -7 4 -14 18 -17 32 -4
21 -4 20 -6 -7z"/>
<path d="M1712 70 c0 -19 2 -27 5 -17 2 9 2 25 0 35 -3 9 -5 1 -5 -18z"/>
<path d="M1751 69 c1 -31 2 -32 8 -9 l7 25 8 -22 c11 -34 26 -28 25 10 -1 18
-3 24 -6 14 -5 -18 -6 -18 -24 -1 -18 17 -19 16 -18 -17z"/>
<path d="M1860 85 c12 -14 6 -35 -10 -35 -5 0 -11 8 -13 18 -4 13 -5 11 -6 -5
-1 -26 20 -31 38 -9 12 15 5 46 -11 46 -6 0 -5 -6 2 -15z"/>
<path d="M1901 68 c0 -26 2 -29 8 -13 8 19 8 19 19 0 10 -18 11 -16 11 15 0
19 -3 29 -6 23 -2 -7 -9 -13 -14 -13 -6 0 -7 5 -4 10 3 6 1 10 -4 10 -6 0 -11
-15 -10 -32z"/>
<path d="M1974 85 c-9 -23 4 -47 23 -43 20 4 30 35 15 50 -6 6 -8 0 -5 -16 4
-20 1 -26 -12 -26 -13 0 -16 6 -13 25 6 28 1 33 -8 10z"/>
<path d="M2050 88 c0 -9 6 -19 13 -21 9 -4 8 -8 -3 -16 -13 -9 -13 -11 3 -11
21 0 22 18 2 44 -12 16 -15 17 -15 4z"/>
</g>
</svg>
