<?xml version="1.0" encoding="UTF-8" standalone="no"?>
<!-- Created with Inkscape (http://www.inkscape.org/) -->

<svg
   width="193.77769mm"
   height="34.994114mm"
   viewBox="0 0 193.77769 34.994114"
   version="1.1"
   id="svg1"
   xml:space="preserve"
   xmlns="http://www.w3.org/2000/svg"
   xmlns:svg="http://www.w3.org/2000/svg"><defs
     id="defs1" /><g
     id="layer1"
     transform="translate(-4.1405501,-6.5050371)"><g
       id="g2"><path
         d="m 105.70997,6.5552003 c -0.32923,0.034743 -0.90103,0.1738196 -1.25624,0.3041896 -0.35521,0.1390556 -0.93567,0.3128857 -1.28222,0.3997955 -0.62378,0.1564376 -1.68942,0.6344571 -2.09661,0.9386466 -0.12129,0.095596 -0.48516,0.3476497 -0.82305,0.5649294 -1.160926,0.7648167 -1.412169,0.9734106 -2.43448,2.0250346 -1.178259,1.199387 -1.680745,1.816462 -1.802041,2.172797 -0.04331,0.13037 -0.190597,0.408492 -0.320554,0.608379 -0.320554,0.460638 -0.987654,1.79908 -1.108947,2.198876 -0.04333,0.165133 -0.181938,0.573615 -0.31189,0.903882 -0.450511,1.190691 -0.641112,3.971867 -0.407195,5.875238 0.129957,1.069007 0.285903,1.6687 0.580464,2.224933 0.121293,0.225976 0.216593,0.47802 0.216593,0.556244 0,0.07822 0.138618,0.338953 0.303226,0.573615 0.164613,0.234661 0.30323,0.460627 0.30323,0.504087 0,0.04348 0.147281,0.260729 0.329219,0.478009 0.173272,0.21728 0.441846,0.573626 0.580465,0.782209 0.372531,0.556233 1.923333,1.833844 2.217901,1.833844 0.04327,0 0.337882,0.139056 0.649769,0.304189 0.658434,0.356336 1.91467,0.782199 3.01495,1.008175 1.21291,0.26074 3.53477,0.234662 4.83432,-0.05212 1.47283,-0.321571 2.66841,-0.695299 3.3615,-1.042938 0.12129,-0.06085 0.35521,-0.139066 0.51982,-0.17383 0.16461,-0.03474 0.39852,-0.13036 0.51982,-0.208584 0.31189,-0.208594 0.51982,-0.330267 0.90969,-0.538851 0.1906,-0.104302 0.48516,-0.304189 0.65843,-0.434559 0.17327,-0.139066 0.36388,-0.252044 0.4072,-0.252044 0.14728,0 1.48148,-1.216769 1.53346,-1.390588 0.0346,-0.0956 -0.0693,-0.382414 -0.23392,-0.703985 -0.15594,-0.295504 -0.44185,-0.834355 -0.63245,-1.199387 -1.24756,-2.363998 -1.31687,-2.450908 -1.6201,-2.155415 -0.0606,0.06085 -0.34654,0.286808 -0.63245,0.495402 -0.2859,0.208583 -0.69309,0.521469 -0.90968,0.695289 -0.22525,0.182515 -0.68443,0.417177 -1.08296,0.556243 -0.3812,0.139056 -0.88369,0.338954 -1.12627,0.451941 -1.05697,0.495392 -3.11892,0.730053 -4.24519,0.486706 -0.83171,-0.182516 -2.08795,-0.851737 -2.65109,-1.40797 -0.54581,-0.547548 -1.22157,-1.833844 -1.37751,-2.616053 -0.052,-0.260729 -0.12995,-0.634447 -0.17328,-0.843041 -0.155938,-0.677907 -0.11262,-1.225454 0.25991,-3.146207 0.052,-0.26073 0.18194,-0.677907 0.29457,-0.912569 0.11262,-0.243358 0.32921,-0.686603 0.46783,-0.999489 0.4765,-1.025556 2.26122,-2.624738 3.34418,-2.989759 0.58913,-0.199898 2.30453,-0.486706 2.91099,-0.486706 0.62378,0 2.20057,0.312876 2.60776,0.530155 0.17327,0.08686 0.41586,0.278122 0.54581,0.425874 0.1906,0.234662 0.22525,0.356335 0.22525,0.808277 0,0.286807 -0.0433,0.660525 -0.10392,0.816973 -0.0866,0.252043 -0.0866,0.312875 0.0173,0.373717 0.20793,0.13037 4.99893,0.112988 5.08556,-0.02611 0.23392,-0.373718 0.3812,-1.329746 0.43318,-2.937614 l 0.052,-1.71217 -0.2599,-0.5475371 C 115.73384,9.1103946 114.74618,8.0066141 114.4083,7.9023223 114.3216,7.8675793 114.03577,7.7198065 113.7672,7.5633689 113.50729,7.398235 113.11742,7.241787 112.90949,7.2157193 112.70157,7.1809763 112.1471,7.0158215 111.67926,6.8506877 L 110.82155,6.537802 108.569,6.511693 c -1.2389,-0.017372 -2.52112,0 -2.859,0.043481 z m 23.955,-0.00832 c -0.35521,0.026109 -0.72775,0.095596 -0.82305,0.1477519 -0.0953,0.060853 -0.33788,0.1303595 -0.53714,0.1651234 -0.20793,0.034743 -0.38987,0.095596 -0.41586,0.1303699 -0.026,0.043481 -0.26857,0.1216738 -0.54581,0.17383 -0.55447,0.1216738 -1.37752,0.4171671 -1.57678,0.5736152 -0.0693,0.052115 -0.32056,0.1825157 -0.54581,0.2868075 -0.23393,0.095596 -0.53715,0.2781218 -0.68443,0.3997955 -0.13862,0.1216737 -0.29457,0.2172797 -0.34655,0.2172797 -0.052,0 -0.25991,0.1477519 -0.45917,0.3215715 -0.19926,0.1825158 -0.52848,0.4258633 -0.73642,0.5475474 -0.75373,0.4519414 -3.0496,2.9810737 -3.42213,3.7719687 -0.0434,0.104292 -0.22526,0.417178 -0.39854,0.703985 -0.17327,0.286808 -0.38986,0.738749 -0.46784,0.999489 -0.0866,0.26073 -0.22525,0.634447 -0.31188,0.825659 -0.22526,0.504087 -0.48517,1.329746 -0.54581,1.773001 -0.0346,0.208584 -0.12129,0.495392 -0.19927,0.65184 -0.1213,0.225965 -0.14728,0.564919 -0.14728,2.268392 0,1.71216 0.026,2.051124 0.15595,2.390077 0.0866,0.21728 0.18193,0.547537 0.22524,0.738749 0.078,0.43456 0.26858,0.938647 0.51117,1.390588 0.0953,0.191202 0.18193,0.373718 0.18193,0.417178 0,0.260729 0.56314,1.164612 1.0743,1.746923 1.10027,1.225454 2.26987,2.311853 2.49513,2.311853 0.0867,0 0.91834,0.365031 1.29955,0.573615 0.24257,0.13037 0.96166,0.365032 2.04462,0.660535 0.53714,0.147752 0.98765,0.191202 2.26988,0.21728 1.49015,0.03474 1.83669,0.0083 2.98896,-0.225976 0.71041,-0.147752 2.17457,-0.556233 2.3825,-0.660525 0.52848,-0.286807 1.21291,-0.564929 1.36886,-0.564929 0.0953,0 0.3812,-0.156438 0.63245,-0.34765 0.25991,-0.191201 0.50248,-0.347639 0.55447,-0.347639 0.052,0 0.20792,-0.121684 0.35521,-0.269426 0.13861,-0.147751 0.37254,-0.330267 0.51116,-0.399795 0.14728,-0.07822 0.4765,-0.338964 0.7364,-0.582311 0.25991,-0.252044 0.65844,-0.56493 0.8837,-0.703985 0.21659,-0.147752 0.49383,-0.408482 0.60645,-0.590997 0.11263,-0.182516 0.32922,-0.47802 0.49383,-0.65184 0.15595,-0.17383 0.34655,-0.434559 0.41586,-0.564929 0.0693,-0.139056 0.33788,-0.512783 0.59779,-0.825659 0.25991,-0.321582 0.49383,-0.677917 0.51981,-0.799591 0.0346,-0.121673 0.26858,-0.660535 0.52849,-1.208072 0.25991,-0.547547 0.49384,-1.138544 0.51982,-1.303678 0.026,-0.17382 0.078,-0.356336 0.12129,-0.399796 0.0346,-0.05211 0.16461,-0.408481 0.2859,-0.782209 0.42452,-1.399274 0.46784,-4.797525 0.0607,-5.953451 -0.0867,-0.26074 -0.20793,-0.634458 -0.25991,-0.825659 -0.052,-0.191212 -0.18194,-0.486705 -0.27724,-0.651839 -0.10392,-0.165134 -0.38986,-0.677918 -0.62378,-1.129859 -0.5718,-1.086398 -0.70176,-1.2515222 -1.70674,-2.138023 -1.23024,-1.0777128 -1.94066,-1.520958 -2.94565,-1.8164618 -0.21659,-0.060852 -0.71908,-0.2346616 -1.12627,-0.3910993 l -0.73641,-0.2694256 -2.16591,-0.026109 c -1.18692,-0.017372 -2.46048,-0.00832 -2.81569,0.026109 z m 2.94565,5.6058027 c 0.77105,0.139066 1.26488,0.373727 1.88,0.903882 1.01365,0.877815 1.37753,1.529655 1.67208,3.007152 0.10403,0.504088 0.10403,2.19018 0.008,2.746413 -0.12129,0.634457 -0.37255,1.581789 -0.51982,1.955517 -0.45052,1.121163 -2.22657,3.189658 -3.08426,3.598139 -0.1906,0.08696 -0.65845,0.312886 -1.03964,0.495401 -0.84038,0.3911 -1.68941,0.590997 -2.55579,0.590997 -1.19558,0 -2.02729,-0.260729 -3.06693,-0.956028 -0.51981,-0.347639 -0.4765,-0.30419 -0.92701,-0.860423 -0.37254,-0.460637 -0.71042,-1.077702 -0.84904,-1.53834 -0.0433,-0.156438 -0.14727,-0.443245 -0.21659,-0.634457 -0.17327,-0.460627 -0.18194,-2.572582 -0.0173,-3.302645 0.21659,-0.938647 0.2859,-1.147231 0.52848,-1.660014 0.46785,-0.973411 1.01366,-1.729542 1.82804,-2.537829 0.45917,-0.434559 0.86636,-0.79958 0.90968,-0.79958 0.052,0 0.23392,-0.112988 0.40719,-0.26074 0.64111,-0.512784 2.52112,-0.973411 3.69938,-0.903883 0.38121,0.01737 0.98766,0.08686 1.34287,0.156438 z m 23.2619,-5.6058027 c -0.5718,0.069486 -1.23023,0.2433475 -1.81936,0.4867053 -0.14729,0.060853 -0.39853,0.1390557 -0.56314,0.1651339 -0.7884,0.1651338 -1.88868,0.6952888 -2.90233,1.3992738 -1.10895,0.7735129 -1.59411,1.0863986 -1.68074,1.0863986 -0.052,0 -0.13862,0.086962 -0.19061,0.1912016 -0.052,0.1129879 -0.38986,0.4780195 -0.73641,0.8169735 -0.3552,0.338953 -0.6411,0.651839 -0.6411,0.695299 0,0.04348 -0.28591,0.399795 -0.63245,0.782199 -0.43319,0.495401 -0.70176,0.895197 -0.87503,1.303678 -0.13862,0.330268 -0.33788,0.738749 -0.45917,0.912579 -0.39854,0.608379 -1.04831,2.363999 -1.19559,3.250499 -0.0346,0.191202 -0.12129,0.556233 -0.1906,0.816973 -0.0953,0.34764 -0.13862,0.921265 -0.13862,2.129337 0,1.738238 0.0866,2.320539 0.55448,3.745891 0.24258,0.738759 0.8317,1.938135 1.16093,2.346627 0.14728,0.191202 0.34654,0.460627 0.43318,0.608379 0.26857,0.425863 0.91835,1.086399 1.47282,1.486194 0.29456,0.199898 0.59779,0.451942 0.68443,0.547537 0.0953,0.104292 0.21659,0.182516 0.28589,0.182516 0.0693,0 0.26858,0.07822 0.44185,0.17383 0.7884,0.417167 1.55946,0.703985 2.83302,1.042938 0.5718,0.156438 1.01365,0.199898 2.4778,0.234662 1.6201,0.04348 1.88002,0.02611 2.68574,-0.147752 1.24757,-0.26074 3.17955,-0.860422 3.63874,-1.121162 0.078,-0.04348 0.29455,-0.121674 0.4765,-0.17382 0.1906,-0.05212 0.55447,-0.225976 0.81438,-0.39111 0.25991,-0.165133 0.72774,-0.443245 1.03098,-0.634457 0.65843,-0.399785 2.17457,-1.729541 2.17457,-1.903361 0,-0.06949 -0.0693,-0.234662 -0.16461,-0.365032 -0.22525,-0.338953 -1.1696,-2.094573 -1.30822,-2.442222 -0.0606,-0.156438 -0.19926,-0.3911 -0.29456,-0.521469 -0.10392,-0.121674 -0.22525,-0.30419 -0.27723,-0.399796 -0.052,-0.0956 -0.16461,-0.182516 -0.24259,-0.199898 -0.13862,-0.02611 -0.64977,0.30419 -1.15226,0.738749 -0.12129,0.112988 -0.27724,0.199898 -0.33789,0.199898 -0.0693,0 -0.26857,0.13037 -0.44184,0.295504 -0.38987,0.347649 -0.90968,0.617075 -1.3342,0.695289 -0.17327,0.02611 -0.63245,0.191212 -1.01365,0.356345 -0.45051,0.199898 -0.83171,0.30419 -1.08296,0.30419 -0.21659,0 -0.49383,0.03474 -0.61512,0.08696 -0.12995,0.04348 -0.52848,0.104291 -0.90102,0.139055 -1.00498,0.08696 -1.80203,-0.130359 -3.09292,-0.825658 -0.62378,-0.338954 -0.81439,-0.47802 -1.15227,-0.877805 -0.41586,-0.47802 -0.50249,-0.651839 -1.00498,-1.946832 l -0.40719,-1.034242 v -1.208083 c 0,-1.208072 0.0953,-1.729541 0.48516,-2.633424 0.0607,-0.147752 0.13862,-0.399795 0.17327,-0.564929 0.0346,-0.165134 0.12129,-0.382414 0.18193,-0.478009 0.0693,-0.0956 0.1213,-0.225976 0.1213,-0.286808 0,-0.225976 1.03098,-1.442744 1.70674,-2.025045 1.23024,-1.051635 1.49015,-1.164623 3.47413,-1.503576 l 1.1436,-0.199898 1.06563,0.165134 c 1.28222,0.208583 1.91467,0.478009 2.15725,0.938647 0.12995,0.260729 0.14728,0.417177 0.10402,1.069016 -0.052,0.617075 -0.0346,0.790895 0.0607,0.851737 0.0693,0.04348 1.20424,0.07822 2.52112,0.07822 2.80701,0 2.60776,0.07822 2.72038,-1.086398 0.026,-0.382414 0.11263,-0.843052 0.17327,-1.025567 0.078,-0.208584 0.12129,-0.773513 0.12996,-1.477498 l 0.0173,-1.14723 -0.38119,-0.7213677 c -0.3812,-0.7300632 -0.38986,-0.7474452 -1.60277,-1.6513279 -0.38121,-0.2781218 -1.1696,-0.6170753 -1.81071,-0.7822091 -0.1906,-0.043481 -0.6931,-0.1912016 -1.12627,-0.3215715 -0.74509,-0.2259655 -0.87504,-0.2346616 -2.90233,-0.2607294 -1.1696,-0.017371 -2.39984,0 -2.72905,0.034743 z M 90.548566,6.8162938 c -3.118915,0.043481 -3.214216,0.052115 -3.552098,0.2433579 -0.181937,0.1042917 -0.381202,0.1912015 -0.433183,0.1912015 -0.155949,0 -0.441847,0.3650316 -0.641111,0.8082768 -0.233918,0.5562436 -0.589128,2.129347 -0.649777,2.885478 -0.01732,0.330258 -0.181937,1.303679 -0.346546,2.146719 -0.173273,0.851737 -0.31189,1.71216 -0.31189,1.912058 -0.0086,0.208594 -0.06931,0.643153 -0.138617,0.982106 -0.30323,1.425352 -0.372538,1.859912 -0.381202,2.390067 -0.0086,0.738759 -0.10397,1.23415 -0.233918,1.27761 -0.129956,0.04348 -0.381202,-0.460637 -0.61512,-1.242836 -0.103969,-0.338964 -0.277237,-0.747445 -0.381202,-0.912579 -0.112624,-0.165134 -0.320554,-0.556233 -0.476499,-0.860422 -0.147285,-0.312886 -0.485167,-0.999489 -0.745077,-1.520958 -0.251246,-0.530166 -0.485163,-1.051635 -0.519819,-1.173309 -0.02599,-0.121673 -0.190601,-0.434559 -0.346546,-0.703985 -0.164609,-0.278122 -0.320554,-0.599693 -0.35521,-0.730063 -0.03464,-0.121674 -0.173274,-0.382413 -0.31189,-0.573615 -0.138617,-0.191202 -0.277238,-0.469323 -0.311891,-0.625761 -0.02598,-0.147752 -0.190601,-0.460638 -0.346546,-0.695299 -0.164609,-0.234662 -0.294565,-0.486706 -0.294565,-0.56493 0,-0.2433471 -1.100283,-2.503054 -1.429501,-2.9376134 L 77.5011,6.8162938 h -2.581768 c -1.966649,0 -2.607761,0.026109 -2.677069,0.1043022 -0.05198,0.060853 -0.112628,0.2694256 -0.147285,0.4606272 -0.02598,0.1912015 -0.08663,0.5214692 -0.129953,0.7387489 -0.04332,0.2172797 -0.121292,0.7387489 -0.173272,1.1733084 -0.05198,0.4258736 -0.173274,1.0950945 -0.25991,1.4774975 -0.08664,0.382414 -0.199265,1.103781 -0.251246,1.607868 -0.173273,1.781698 -0.277238,2.659503 -0.398531,3.302656 -0.06931,0.356335 -0.199261,1.06032 -0.294562,1.564408 -0.0953,0.504087 -0.1906,1.164622 -0.225257,1.477497 -0.02598,0.312886 -0.103959,0.816973 -0.173272,1.129859 -0.199263,0.921265 -0.381199,1.920743 -0.43318,2.433527 -0.06931,0.677907 -0.216593,1.642631 -0.30323,1.998967 -0.04333,0.165134 -0.0953,0.408491 -0.129953,0.538851 -0.02598,0.121684 -0.147285,0.34765 -0.268573,0.495401 l -0.225258,0.269426 h -2.96297 c -2.356511,0 -2.997623,-0.02611 -3.127576,-0.121674 -0.147285,-0.112988 -0.155949,-0.156437 -0.01732,-1.19069 0.08664,-0.591007 0.147281,-1.216768 0.147281,-1.390588 0,-0.165134 0.04331,-0.34765 0.103969,-0.408492 0.05198,-0.05211 0.147281,-0.460627 0.207925,-0.903883 0.225258,-1.720845 0.389867,-2.737716 0.511156,-3.111433 0.06931,-0.21728 0.173272,-0.903883 0.216593,-1.520958 0.05198,-0.625771 0.155945,-1.40797 0.225253,-1.75562 0.06064,-0.347649 0.121293,-0.782209 0.121293,-0.964724 0,-0.191202 0.05198,-0.495391 0.112629,-0.677907 0.06931,-0.191202 0.147281,-0.590997 0.173273,-0.903883 0.0953,-0.895187 0.03464,-0.877805 2.503796,-0.869119 1.420837,0.0083 2.113929,-0.01737 2.191905,-0.08696 0.06064,-0.05211 0.138617,-0.356335 0.17327,-0.677907 0.03464,-0.321581 0.112629,-0.790905 0.181937,-1.0429484 0.06931,-0.2433475 0.181937,-0.9386467 0.251246,-1.5296438 0.06931,-0.5823113 0.147284,-1.1298483 0.173277,-1.1993865 0.03464,-0.078224 -0.0086,-0.1998978 -0.08664,-0.2781114 C 69.799126,6.82494 69.114697,6.8162438 62.478336,6.8162438 c -6.87894,0 -7.320787,0.00832 -7.390096,0.1477519 -0.129956,0.2607398 -0.268573,1.0777128 -0.311894,1.8077655 -0.01732,0.3824136 -0.0953,0.9299609 -0.173272,1.2167685 -0.07798,0.2868073 -0.147281,0.7908953 -0.155946,1.1298483 l -0.02598,0.608389 2.157254,0.02611 c 1.308208,0.0083 2.200565,0.05211 2.269874,0.112977 0.181937,0.147752 0.02598,1.347139 -0.433183,3.398252 -0.06931,0.295503 -0.155945,0.938646 -0.181937,1.416666 -0.03464,0.478009 -0.112625,0.97341 -0.181933,1.095084 -0.06065,0.121684 -0.138621,0.469324 -0.173274,0.782209 -0.03464,0.30419 -0.0953,0.651839 -0.13862,0.773513 -0.04331,0.121674 -0.121288,0.703985 -0.164609,1.286296 -0.04331,0.634458 -0.138617,1.182005 -0.207929,1.329746 -0.07797,0.139067 -0.173273,0.556244 -0.216589,0.921265 -0.05198,0.373728 -0.10397,0.730063 -0.129954,0.808287 -0.01732,0.06949 -0.07798,0.47801 -0.129956,0.912569 -0.06065,0.564929 -0.121293,0.808277 -0.233918,0.886501 -0.103959,0.08696 -0.701756,0.112988 -2.235226,0.112988 -2.434483,0 -2.330522,-0.03474 -2.425823,0.869119 -0.03464,0.312875 -0.112625,0.782198 -0.181934,1.051624 -0.07797,0.3042 -0.121293,0.956028 -0.121293,1.720856 0,1.129858 0.01732,1.225454 0.173274,1.312374 0.112629,0.06085 3.352834,0.08696 10.50035,0.06949 10.04984,-0.02611 10.353065,-0.03474 10.838232,-0.199898 0.398527,-0.139066 0.589128,-0.269425 0.87503,-0.608389 0.52848,-0.625761 0.745073,-1.164612 0.840373,-2.129337 0.04331,-0.451941 0.138618,-1.025557 0.207926,-1.260218 0.06931,-0.243358 0.173277,-0.790895 0.225257,-1.216769 0.190601,-1.660013 0.251246,-2.025045 0.433182,-2.824626 0.0953,-0.451941 0.21659,-1.173308 0.251246,-1.590485 0.04332,-0.425874 0.121293,-0.973411 0.173274,-1.234151 0.05198,-0.252043 0.08664,-0.773513 0.07797,-1.14723 -0.02599,-0.669221 0.02598,-0.895197 0.181937,-0.895197 0.112628,0 0.398527,0.590997 0.467839,0.964725 0.02598,0.165134 0.242581,0.677907 0.476499,1.129848 1.160931,2.216247 1.550793,3.03322 1.611442,3.276578 0.02599,0.156437 0.09529,0.295493 0.138617,0.330257 0.08664,0.05212 0.597792,1.086399 0.597792,1.199387 0,0.03474 0.112629,0.225975 0.251245,0.425873 0.138618,0.199888 0.285902,0.512773 0.337882,0.686593 0.05199,0.182516 0.173274,0.443255 0.268574,0.582311 0.103969,0.139066 0.181937,0.286808 0.181937,0.338954 0,0.04348 0.06065,0.130369 0.129953,0.191212 0.06931,0.06085 0.147285,0.243347 0.181938,0.425863 0.03464,0.17383 0.199265,0.564929 0.381202,0.877815 0.173273,0.312875 0.346546,0.669221 0.372538,0.790895 0.03464,0.121673 0.155945,0.356335 0.268574,0.521469 0.242582,0.330268 0.337882,0.521469 0.450507,0.903883 0.138621,0.460637 0.277237,0.478019 2.954307,0.460637 1.724067,-0.01737 2.469143,-0.05211 2.547116,-0.13037 0.112628,-0.112988 0.216589,-0.556233 0.346546,-1.503576 0.04331,-0.356335 0.14728,-0.877804 0.21659,-1.155926 0.06931,-0.269426 0.147283,-0.816973 0.173272,-1.216769 0.02599,-0.391099 0.0953,-0.964714 0.164613,-1.2776 0.06931,-0.312885 0.147281,-0.938646 0.173269,-1.390588 0.02598,-0.451941 0.103969,-0.999489 0.173274,-1.216768 0.164612,-0.512773 0.476502,-2.355303 0.476502,-2.798558 0,-0.191202 0.07798,-0.65184 0.173273,-1.016861 0.173273,-0.695299 0.485164,-2.55521 0.5718,-3.441711 0.02598,-0.286808 0.103969,-0.660525 0.164613,-0.825659 0.06931,-0.165134 0.164609,-0.730063 0.207926,-1.251532 0.103959,-0.990793 0.285901,-1.468812 0.615119,-1.573104 0.08664,-0.02611 0.476503,-0.04348 0.866366,-0.02611 0.823049,0.02611 0.953001,-0.06085 0.953001,-0.686603 0,-0.208583 0.06065,-0.495391 0.129954,-0.634457 0.06931,-0.139055 0.173277,-0.617075 0.216593,-1.069006 0.05198,-0.4606376 0.129953,-0.956039 0.173273,-1.1211625 0.121293,-0.4171774 0.103969,-1.3384422 -0.01732,-1.4253624 -0.06064,-0.043481 -1.550793,-0.060852 -3.318177,-0.034743 z m 79.541014,0.112988 c -0.12129,0.086962 -0.18194,0.2955037 -0.23392,0.8082768 -0.0346,0.3737277 -0.12995,0.8951969 -0.19926,1.1472406 -0.15595,0.547537 -0.36388,2.5465148 -0.2859,2.7464118 0.0433,0.112988 0.20793,0.139056 0.99631,0.139056 1.24757,0 1.27357,0.01737 1.20426,0.921265 -0.026,0.382413 -0.11263,0.834355 -0.1906,1.008174 -0.0693,0.182516 -0.12996,0.43456 -0.12996,0.56493 0,0.13037 -0.052,0.495401 -0.12129,0.808276 -0.0693,0.312886 -0.17327,0.990793 -0.22526,1.520958 -0.052,0.52147 -0.14727,1.225455 -0.21658,1.564408 -0.0606,0.330268 -0.13862,1.060331 -0.17328,1.607868 -0.0433,0.677917 -0.10392,1.042949 -0.1906,1.138544 -0.0693,0.08696 -0.15595,0.47802 -0.19926,0.912579 -0.0433,0.425864 -0.1213,0.912569 -0.17328,1.077703 -0.0433,0.165134 -0.0867,0.478019 -0.0867,0.686603 0,0.208594 -0.052,0.582311 -0.1213,0.825669 -0.0693,0.243347 -0.17327,0.608379 -0.22525,0.808277 l -0.0953,0.373717 h -1.12627 c -1.08296,0 -1.12628,0.0083 -1.19559,0.191212 -0.15594,0.408481 -0.2859,1.008175 -0.39853,1.851215 -0.0693,0.47802 -0.16461,1.103781 -0.21659,1.390588 -0.20793,1.182005 -0.20793,1.364521 -0.0433,1.49488 0.12995,0.08696 1.11761,0.112988 5.1722,0.112988 h 5.00759 l 0.15594,-0.260729 c 0.19926,-0.312886 0.4072,-1.303679 0.52849,-2.476987 0.052,-0.478019 0.13862,-1.138544 0.1906,-1.468812 0.0433,-0.330268 0.0693,-0.651839 0.0433,-0.712681 -0.0346,-0.0956 -0.2859,-0.121674 -1.11761,-0.121674 -0.71042,0 -1.10028,-0.03474 -1.16959,-0.104292 -0.13862,-0.139055 -0.12996,-0.382413 0.0174,-0.660535 0.18194,-0.347639 0.38987,-1.486184 0.48517,-2.68557 0.052,-0.582311 0.13861,-1.303678 0.20793,-1.607868 0.0693,-0.304189 0.14727,-0.921265 0.18193,-1.373206 0.0346,-0.451941 0.12129,-0.964715 0.1906,-1.129848 0.0693,-0.165134 0.15595,-0.582312 0.19926,-0.912579 0.16462,-1.425352 0.2859,-2.216247 0.44185,-2.954996 0.0953,-0.434559 0.20793,-1.095095 0.24258,-1.468812 0.052,-0.443245 0.12996,-0.730063 0.20793,-0.790895 0.078,-0.05211 0.59779,-0.104292 1.2389,-0.112988 0.60646,-0.0083 1.13494,-0.04348 1.16093,-0.07822 0.0346,-0.04348 0.11263,-0.425863 0.16462,-0.851737 0.0606,-0.434559 0.1646,-1.0255563 0.23391,-1.3210601 0.0693,-0.2954933 0.12129,-0.6431429 0.12129,-0.7735128 0,-0.1216738 0.0606,-0.4345595 0.13862,-0.6952889 0.0693,-0.2520436 0.1213,-0.6344572 0.10402,-0.8343549 l -0.026,-0.3737174 -5.15488,-0.026109 c -4.21053,-0.017372 -5.18953,0 -5.31948,0.095596 z m 12.62295,-0.00832 c -0.22526,0.2955037 -0.45918,1.0516346 -0.45918,1.4774979 0,0.2520436 -0.0606,0.7300631 -0.12995,1.0690166 -0.0693,0.3302676 -0.12996,0.7474457 -0.12996,0.9212647 0,0.165134 -0.0606,0.495402 -0.13862,0.712681 -0.20792,0.60838 -0.12128,0.669222 0.8837,0.669222 0.7364,0 0.81438,0.01737 0.90968,0.191201 0.11263,0.208584 0.0346,1.946821 -0.10402,2.320549 -0.052,0.121674 -0.12129,0.712671 -0.1646,1.329746 -0.0434,0.634457 -0.12997,1.208072 -0.19927,1.347128 -0.0693,0.139066 -0.15594,0.460638 -0.19059,0.721367 -0.026,0.26074 -0.10402,0.747445 -0.17328,1.086399 -0.0607,0.330267 -0.13862,0.982106 -0.17327,1.434048 -0.0346,0.460627 -0.1213,0.938647 -0.19061,1.086398 -0.078,0.139056 -0.17327,0.530155 -0.20793,0.869119 -0.15593,1.477498 -0.27723,2.216247 -0.42452,2.781176 -0.0953,0.330258 -0.20793,1.069017 -0.25991,1.62525 -0.052,0.556233 -0.12995,1.138545 -0.17326,1.303678 -0.052,0.156438 -0.0867,0.564919 -0.0867,0.903883 0,0.799581 0.26857,1.338432 0.7624,1.53833 0.80572,0.321582 1.13493,0.338964 7.12153,0.3042 6.7663,-0.03474 6.45442,0 7.2428,-0.816973 0.51983,-0.547548 0.68444,-0.938647 0.8144,-2.025046 0.052,-0.408481 0.15594,-0.921264 0.22524,-1.129858 0.0693,-0.21728 0.12129,-0.504087 0.12129,-0.651829 0,-0.147752 0.0866,-0.677917 0.19061,-1.182004 0.10392,-0.504088 0.16461,-0.982107 0.12996,-1.069017 -0.052,-0.139056 -0.27724,-0.147752 -2.56445,-0.147752 -2.90232,0 -2.65108,-0.08696 -2.91965,0.982107 -0.10392,0.443245 -0.20793,0.643143 -0.40719,0.808277 l -0.25991,0.217279 -1.81071,-0.02611 c -2.19189,-0.03474 -2.0966,0.01737 -2.02729,-1.112466 0.0173,-0.408492 0.10392,-0.886501 0.17328,-1.069017 0.078,-0.17382 0.1646,-0.564929 0.1906,-0.869119 0.0346,-0.295503 0.10391,-0.738749 0.1646,-0.97341 0.0693,-0.243358 0.13862,-0.843041 0.17328,-1.347128 0.0346,-0.504098 0.11262,-1.208083 0.18193,-1.564418 0.0693,-0.356336 0.12129,-0.782209 0.12129,-0.947333 0,-0.165134 0.078,-0.582311 0.16461,-0.912579 0.15595,-0.538851 0.25991,-1.2776 0.51982,-3.441701 0.0434,-0.312886 0.12996,-0.703985 0.19926,-0.877815 0.078,-0.17382 0.16462,-0.747435 0.19928,-1.303678 0.026,-0.547537 0.12995,-1.2515225 0.22524,-1.5644082 0.24259,-0.8604227 0.22526,-1.442734 -0.0866,-1.9033716 -0.12996,-0.1998977 -0.43318,-0.4780091 -0.66711,-0.6170752 l -0.42451,-0.2520436 h -3.12758 c -2.4085,0 -3.15357,0.026109 -3.21421,0.1042918 z M 26.394202,9.7716641 c -0.121292,0.034743 -0.606456,0.078224 -1.082957,0.078224 -0.476501,0.00832 -1.334202,0.06959 -1.906003,0.1477519 -0.571802,0.069486 -1.68075,0.182516 -2.469143,0.252044 -0.788392,0.06085 -1.724067,0.182515 -2.079277,0.260739 -0.684429,0.147752 -1.983976,0.356336 -2.96297,0.469324 -0.320555,0.03474 -0.667101,0.13037 -0.779729,0.199898 -0.112627,0.06949 -0.407191,0.156437 -0.667101,0.191201 -0.675765,0.08696 -2.009967,0.399796 -2.261214,0.530165 -0.121291,0.06085 -0.415855,0.139056 -0.649773,0.17382 -0.242583,0.03474 -0.606456,0.112988 -0.823048,0.17383 -0.216591,0.06085 -0.580465,0.139056 -0.8143831,0.17382 -0.2339189,0.03474 -0.7537384,0.182516 -1.1695937,0.338953 -0.4071925,0.156448 -0.918348,0.312886 -1.1349391,0.338954 -0.2165911,0.02611 -0.6064557,0.147751 -0.8663654,0.269436 -0.2599097,0.121673 -0.7017558,0.278111 -0.9703295,0.347639 -0.2685737,0.06949 -0.5804649,0.17383 -0.6930929,0.243358 -0.112627,0.06085 -0.3552089,0.156437 -0.5458103,0.199897 -0.2165911,0.06085 -0.3552099,0.156438 -0.3725367,0.252044 -0.025995,0.139056 0.025995,0.147752 0.5198195,0.112988 0.7017558,-0.04348 1.8626856,-0.295504 2.165914,-0.460638 0.1299538,-0.06949 0.563137,-0.165133 0.9530016,-0.208583 0.3985275,-0.05212 1.1522659,-0.182516 1.6720854,-0.312886 0.5284834,-0.121674 1.2822212,-0.26074 1.6894132,-0.304189 0.771065,-0.08696 1.89734,-0.21728 2.876333,-0.338954 0.320555,-0.04348 0.649774,-0.112988 0.745074,-0.165134 0.190601,-0.104302 6.601705,-0.365031 10.240441,-0.417177 1.44683,-0.02611 2.755041,0 3.162233,0.05212 0.3812,0.05211 1.680749,0.13037 2.884998,0.182515 1.360193,0.05212 2.34785,0.13036 2.599096,0.208584 0.623782,0.182516 1.282221,0.304189 2.122596,0.399795 0.424518,0.04348 0.978991,0.139056 1.2389,0.21728 0.25991,0.06949 0.675768,0.191202 0.927013,0.26074 0.242582,0.06949 0.745074,0.17382 1.100284,0.234662 0.355209,0.05211 0.745073,0.173819 0.857701,0.260729 0.112629,0.08696 0.303229,0.156438 0.424519,0.156438 0.112628,0 0.389866,0.06085 0.61512,0.13037 0.216593,0.06949 0.6671,0.208594 0.996322,0.304189 1.108946,0.338964 1.54213,0.556244 3.326841,1.71217 0.857701,0.556233 1.204247,0.921265 1.620103,1.703463 0.467838,0.869119 0.363874,2.633435 -0.207926,3.528622 -0.06931,0.112988 -0.216594,0.417177 -0.320555,0.669221 -0.0953,0.252043 -0.277237,0.582311 -0.389865,0.730063 -0.355211,0.469323 -1.403514,1.564408 -1.507474,1.564408 -0.05198,0 -0.277238,0.173819 -0.502496,0.391099 -0.415854,0.39111 -1.126275,0.912579 -1.2389,0.912579 -0.03464,0 -0.138619,0.06949 -0.233921,0.156438 -0.164608,0.147751 -0.537143,0.347649 -2.373839,1.2776 -0.537147,0.269425 -0.996322,0.530165 -1.030975,0.573625 -0.02598,0.04348 -0.121292,0.07822 -0.216593,0.07822 -0.103969,0 -0.45051,0.121674 -0.779728,0.269426 -0.580464,0.252044 -1.264893,0.504087 -2.356515,0.860423 -0.277236,0.08696 -0.554473,0.199897 -0.606455,0.243357 -0.06065,0.04348 -0.268573,0.104292 -0.476501,0.13036 -0.381201,0.04348 -0.519819,0.112988 -0.433182,0.199898 0.0953,0.08696 0.623782,0.05211 2.018632,-0.121674 1.568119,-0.208584 2.555777,-0.399796 2.893659,-0.573615 0.121293,-0.06949 0.459175,-0.147752 0.745076,-0.182516 0.658437,-0.07822 1.394846,-0.278122 1.732731,-0.478019 0.147282,-0.08696 0.502492,-0.17382 0.805718,-0.208584 0.303229,-0.02611 0.623784,-0.0956 0.719085,-0.147752 0.0953,-0.05212 0.363874,-0.147752 0.580463,-0.208583 1.186923,-0.338964 1.646094,-0.495402 1.89734,-0.60839 0.147285,-0.06949 0.311894,-0.130359 0.363875,-0.130359 0.06064,0 0.251245,-0.07822 0.441846,-0.17383 0.190601,-0.0956 0.450511,-0.17382 0.580464,-0.17382 0.138621,0 0.320558,-0.05211 0.415854,-0.121674 0.0953,-0.06085 0.285903,-0.139066 0.424523,-0.17383 0.138617,-0.03474 0.355206,-0.139055 0.467835,-0.234661 0.121292,-0.08696 0.277238,-0.165134 0.346546,-0.165134 0.06931,0 0.285902,-0.13037 0.485167,-0.295494 0.199261,-0.156448 0.450507,-0.321581 0.5718,-0.356345 0.121292,-0.03474 0.372538,-0.191202 0.563135,-0.34764 0.190601,-0.156448 0.441847,-0.312885 0.56314,-0.347649 0.415855,-0.13037 1.663423,-1.573104 2.070613,-2.390077 0.155945,-0.312886 0.346546,-0.686603 0.424518,-0.825659 0.121293,-0.217279 0.147282,-0.530165 0.138621,-1.912057 0,-1.781698 -0.02598,-1.877293 -0.589131,-2.694266 -0.545808,-0.790895 -1.862684,-2.303167 -2.001304,-2.303167 -0.04331,0 -0.303226,-0.156438 -0.563136,-0.34764 -0.25991,-0.191212 -0.589128,-0.399795 -0.736409,-0.460637 -0.138621,-0.06949 -0.372538,-0.21728 -0.519819,-0.338954 -0.138621,-0.121673 -0.355211,-0.252043 -0.476503,-0.286807 -0.121293,-0.03474 -0.467839,-0.191212 -0.779729,-0.34765 -0.31189,-0.165134 -0.909685,-0.39111 -1.342868,-0.521469 -0.424519,-0.121684 -0.875027,-0.278122 -0.996319,-0.338964 -0.233918,-0.130359 -1.256228,-0.434559 -1.73273,-0.530155 -0.16461,-0.03474 -0.381203,-0.112988 -0.4765,-0.17383 -0.10397,-0.06085 -0.433182,-0.156438 -0.736413,-0.208583 -0.580464,-0.0956 -1.854023,-0.34765 -2.902322,-0.56493 -0.329222,-0.06949 -0.978994,-0.147752 -1.429505,-0.182516 -0.450511,-0.02611 -1.221575,-0.104291 -1.698075,-0.173819 -0.485167,-0.06949 -1.481486,-0.1738302 -2.209233,-0.2346619 -1.559458,-0.1216737 -7.56337,-0.17383 -7.875262,-0.069486 z m -2.486469,3.3634879 c -0.346546,0.04348 -0.363874,0.173819 -0.06064,0.286807 0.216591,0.08686 1.828031,0.252044 4.366481,0.451941 0.693092,0.05211 1.308212,0.139056 1.377521,0.191202 0.06931,0.05212 0.459174,0.139056 0.866366,0.191202 2.165914,0.278121 3.309516,0.504097 4.1239,0.782209 0.337882,0.121673 0.797056,0.252043 1.030975,0.304189 0.233919,0.04348 0.606456,0.191212 0.823046,0.330268 0.216594,0.139056 0.51982,0.286807 0.658441,0.321571 0.14728,0.03474 0.398526,0.17383 0.571799,0.30419 0.173273,0.139066 0.415855,0.286818 0.545811,0.338964 0.606457,0.225965 1.438165,1.251522 1.732732,2.12064 0.294561,0.886501 0.07797,2.633425 -0.459175,3.711138 -0.147282,0.295493 -0.268574,0.599693 -0.268574,0.669221 0,0.286807 -0.658436,1.095084 -1.793375,2.190179 -0.658441,0.634447 -1.334205,1.216758 -1.498814,1.294982 -0.54581,0.252043 -1.472821,0.903883 -1.472821,1.034253 0,0.0956 0.07797,0.112977 0.329219,0.07822 0.667101,-0.0956 1.290884,-0.252044 1.750058,-0.451942 0.658436,-0.278122 1.576786,-0.564929 1.810704,-0.564929 0.103959,0 0.485167,-0.156438 0.840372,-0.34765 0.363875,-0.191201 0.727749,-0.347649 0.814386,-0.347649 0.08664,0 0.181937,-0.03474 0.207928,-0.07822 0.02599,-0.03474 0.311891,-0.199888 0.632445,-0.365022 0.320558,-0.156448 0.745076,-0.417177 0.935678,-0.564929 0.190597,-0.147752 0.441843,-0.304189 0.563136,-0.338953 0.372537,-0.112988 1.732731,-1.025557 1.732731,-1.164623 0,-0.02611 0.14728,-0.208584 0.320554,-0.399795 0.181937,-0.191202 0.485167,-0.582301 0.675768,-0.860423 0.190597,-0.286808 0.415854,-0.617075 0.50249,-0.738749 0.10397,-0.156438 0.138618,-0.312886 0.10397,-0.504087 -0.03464,-0.182516 0,-0.382414 0.09529,-0.556234 0.147284,-0.295503 0.138619,-0.399795 -0.121289,-1.399284 -0.242582,-0.947343 -1.108947,-2.042427 -1.966649,-2.476986 -0.233921,-0.121674 -0.537147,-0.295504 -0.667104,-0.382414 -0.129953,-0.0956 -0.381199,-0.225965 -0.563136,-0.286808 -0.181937,-0.06085 -0.528484,-0.234661 -0.771064,-0.382413 -0.242586,-0.139056 -0.615121,-0.286808 -0.82305,-0.321572 -0.207925,-0.03474 -0.441846,-0.112987 -0.511155,-0.173819 -0.21659,-0.17383 -0.953002,-0.399796 -1.732731,-0.521469 -0.407191,-0.06085 -0.849037,-0.156448 -0.996319,-0.199898 -0.13862,-0.05212 -0.528483,-0.112988 -0.84904,-0.147752 -0.329219,-0.02611 -0.736409,-0.104292 -0.909682,-0.17383 -0.311893,-0.121674 -1.13494,-0.234662 -2.833017,-0.391099 -0.4765,-0.04348 -1.490148,-0.156438 -2.25255,-0.26073 -1.074292,-0.139066 -1.966649,-0.191212 -3.985281,-0.217279 -1.429502,-0.01737 -2.729051,-0.0083 -2.876333,0.01737 z m -7.563371,1.155926 c -2.018631,0.104292 -4.704364,0.338953 -4.791001,0.425863 -0.138618,0.139056 1.32554,0.26074 3.838,0.312886 1.360193,0.02611 2.70306,0.08696 2.988961,0.130359 0.2859,0.05212 1.048301,0.121684 1.689412,0.17383 1.065629,0.07822 1.880013,0.199898 2.945643,0.443246 0.216591,0.05211 0.667101,0.130369 0.99632,0.17383 0.337882,0.04348 0.745074,0.130359 0.909683,0.199897 0.398529,0.156438 1.221576,0.399785 1.819368,0.530155 0.953002,0.21728 1.602776,0.408492 1.732731,0.52147 0.06931,0.06949 0.251246,0.147751 0.389865,0.182515 0.147281,0.03474 0.337882,0.112988 0.433182,0.17383 0.0953,0.06949 0.233919,0.121674 0.311892,0.121674 0.07797,0 0.207927,0.07822 0.294564,0.17382 0.08664,0.09559 0.233919,0.191212 0.337883,0.225976 0.35521,0.112988 0.927011,0.573615 1.35153,1.086398 0.35521,0.425863 0.433182,0.582301 0.433182,0.843041 -0.0086,0.173819 -0.05198,0.399795 -0.112627,0.495401 -0.320555,0.538852 -0.80572,1.112467 -1.048302,1.23414 -0.147283,0.07822 -0.467838,0.295504 -0.719084,0.495402 -0.4765,0.373717 -0.909684,0.695289 -1.576785,1.155926 -0.216591,0.147752 -0.571801,0.399796 -0.788393,0.556233 -0.216591,0.156438 -0.597792,0.3911 -0.857701,0.530166 -0.251246,0.130359 -0.606456,0.356335 -0.779729,0.486705 -0.511156,0.399796 -2.06195,1.434038 -2.451814,1.642632 -0.199264,0.112988 -0.502493,0.312886 -0.675765,0.443245 -0.16461,0.139066 -0.398529,0.30419 -0.519819,0.365032 -0.121291,0.06085 -0.35521,0.234661 -0.528484,0.382413 -0.173272,0.147752 -0.502491,0.408481 -0.727746,0.573615 -0.225255,0.165134 -0.51982,0.408492 -0.649775,0.538852 -0.129955,0.130369 -0.424519,0.338963 -0.649774,0.460637 -0.233918,0.121674 -0.61512,0.408481 -0.857702,0.643143 -0.415855,0.399796 -1.316875,1.225454 -2.096604,1.920754 -0.363874,0.330267 -1.672086,1.825147 -1.80204,2.068494 -0.04332,0.07822 -0.242582,0.330268 -0.45051,0.547548 -0.207928,0.225976 -0.433183,0.538851 -0.502492,0.695299 -0.07797,0.165124 -0.181936,0.373717 -0.242583,0.469323 -0.779728,1.23414 -1.082956,1.877294 -1.238902,2.546515 -0.06064,0.269426 -0.181936,0.686603 -0.25991,0.92995 -0.25991,0.764828 -0.303228,0.956029 -0.303228,1.425352 0,0.677918 0.242583,0.686603 1.013648,0.01737 0.64111,-0.556233 1.273557,-1.008175 1.758722,-1.260218 0.259909,-0.139056 0.537147,-0.30419 0.615119,-0.365021 0.06931,-0.06959 0.173274,-0.121684 0.225255,-0.121684 0.05198,0 0.294565,-0.139056 0.54581,-0.30419 0.61512,-0.417177 2.009969,-1.086399 2.252551,-1.086399 0.112628,0 0.415855,-0.121673 0.684429,-0.278111 0.268572,-0.147752 0.73641,-0.321571 1.048302,-0.373728 1.221575,-0.234661 2.053286,-0.425863 2.469141,-0.573615 0.476502,-0.165134 1.264894,-0.286807 3.136243,-0.469323 0.675765,-0.06949 1.394848,-0.165134 1.58545,-0.21728 0.4765,-0.13037 4.444454,-0.13037 5.241511,0 0.337882,0.05212 1.169592,0.147752 1.862685,0.21728 2.009969,0.191212 2.86767,0.304189 3.465462,0.478019 0.840373,0.234662 1.724067,0.417178 1.767386,0.365022 0.02598,-0.02611 -0.01732,-0.147742 -0.0953,-0.286808 -0.207929,-0.347639 -2.789697,-1.62525 -3.604082,-1.773002 -0.173274,-0.03474 -0.337882,-0.09559 -0.363871,-0.130359 -0.02599,-0.04348 -0.207929,-0.0956 -0.415858,-0.13037 -0.199264,-0.03474 -0.675765,-0.191212 -1.056965,-0.34765 -0.45051,-0.182515 -0.927011,-0.304189 -1.342866,-0.347649 -0.372538,-0.03474 -0.71042,-0.112978 -0.797056,-0.191202 -0.07798,-0.06949 -0.346547,-0.156438 -0.606457,-0.191201 -0.251246,-0.03474 -0.54581,-0.112988 -0.649773,-0.165134 -0.103959,-0.06085 -0.493829,-0.104302 -0.866366,-0.112988 -0.372538,0 -0.970329,-0.06085 -1.325539,-0.13037 -0.35521,-0.06949 -0.944339,-0.165134 -1.299549,-0.21728 -0.35521,-0.05212 -0.875029,-0.156437 -1.16093,-0.243347 -0.415855,-0.112988 -0.528482,-0.182516 -0.64111,-0.417178 -0.112627,-0.234661 -0.112627,-0.338953 -0.026,-0.651839 0.147282,-0.486705 0.840375,-1.520958 1.186921,-1.75562 0.147282,-0.09559 0.563138,-0.425863 0.92701,-0.730063 0.35521,-0.304189 0.823048,-0.660525 1.022311,-0.79958 0.207929,-0.147752 0.554475,-0.39111 0.771066,-0.556233 0.216592,-0.165134 0.632447,-0.43456 0.935674,-0.591008 0.303229,-0.156438 0.892358,-0.573615 1.316876,-0.921265 0.433183,-0.338953 0.814384,-0.625761 0.866365,-0.625761 0.04331,0 0.207929,-0.112988 0.363874,-0.243358 0.155946,-0.130359 0.459174,-0.356335 0.675765,-0.486705 0.441846,-0.286807 2.512461,-2.33792 2.512461,-2.485672 0,-0.06085 0.07798,-0.199898 0.173274,-0.321572 0.0953,-0.121684 0.173272,-0.321582 0.173272,-0.451941 0,-0.121684 0.07798,-0.34765 0.173274,-0.486705 0.216593,-0.321582 0.242582,-1.225465 0.04331,-1.607868 -0.06931,-0.139066 -0.173272,-0.451942 -0.225257,-0.703985 -0.07797,-0.373728 -0.181936,-0.538862 -0.632447,-0.990803 -0.511156,-0.521469 -1.06563,-0.912569 -1.299548,-0.912569 -0.06064,0 -0.433183,-0.156437 -0.823048,-0.356335 -0.389863,-0.191223 -0.8577,-0.373738 -1.030974,-0.399816 -0.173272,-0.02611 -0.415855,-0.0956 -0.537146,-0.156438 -0.519819,-0.26073 -1.204248,-0.469323 -1.689412,-0.504087 -0.285902,-0.02611 -0.658438,-0.104292 -0.823048,-0.17382 -0.537146,-0.234662 -1.464157,-0.408492 -2.720387,-0.495401 -0.675765,-0.05211 -1.472821,-0.13037 -1.784714,-0.182516 -0.675765,-0.112988 -7.060878,-0.165134 -8.836927,-0.07822 z m 16.720854,15.731028 c 0,0.04348 0.07797,0.08696 0.173273,0.08696 0.0953,0 0.173273,-0.04348 0.173273,-0.08696 0,-0.05211 -0.07798,-0.08696 -0.173273,-0.08696 -0.0953,0 -0.173273,0.03474 -0.173273,0.08696 z"
         id="path1"
         style="fill:#000000;fill-opacity:1;stroke:none;stroke-width:0.00832171;stroke-dasharray:none" /><text
         xml:space="preserve"
         style="font-size:8.07321px;letter-spacing:1.34309px;writing-mode:lr-tb;direction:ltr;fill:#000000;fill-opacity:1;stroke-width:0.0106977;stroke-dasharray:none"
         x="55.867397"
         y="40.933662"
         id="text1"
         transform="scale(1.0265542,0.9741327)"><tspan
           id="tspan1"
           style="font-style:normal;font-variant:normal;font-weight:normal;font-stretch:normal;font-size:8.07321px;font-family:my;-inkscape-font-specification:my;letter-spacing:1.34309px;stroke-width:0.0106977"
           x="55.867397"
           y="40.933662">INOVAÇÃO EM CILINDROS</tspan></text></g></g></svg>
