<?xml version="1.0" standalone="no"?>
<!DOCTYPE svg PUBLIC "-//W3C//DTD SVG 20010904//EN"
 "http://www.w3.org/TR/2001/REC-SVG-20010904/DTD/svg10.dtd">
<svg style="background:transparent" version="1.0" xmlns="http://www.w3.org/2000/svg"
 width="560.000000pt" height="126.000000pt" viewBox="0 0 560.000000 126.000000"
 preserveAspectRatio="xMidYMid meet">
<metadata>
Created by potrace 1.16, written by Peter Selinger 2001-2019
</metadata>
<g transform="translate(0.000000,126.000000) scale(0.023609,-0.023684)"
fill="#16a34a" stroke="none">
<path d="M12315 4680 c-38 -4 -104 -20 -145 -35 -41 -16 -108 -36 -148 -46
-72 -18 -195 -73 -242 -108 -14 -11 -56 -40 -95 -65 -134 -88 -163 -112 -281
-233 -136 -138 -194 -209 -208 -250 -5 -15 -22 -47 -37 -70 -37 -53 -114 -207
-128 -253 -5 -19 -21 -66 -36 -104 -52 -137 -74 -457 -47 -676 15 -123 33
-192 67 -256 14 -26 25 -55 25 -64 0 -9 16 -39 35 -66 19 -27 35 -53 35 -58 0
-5 17 -30 38 -55 20 -25 51 -66 67 -90 43 -64 222 -211 256 -211 5 0 39 -16
75 -35 76 -41 221 -90 348 -116 140 -30 408 -27 558 6 170 37 308 80 388 120
14 7 41 16 60 20 19 4 46 15 60 24 36 24 60 38 105 62 22 12 56 35 76 50 20
16 42 29 47 29 17 0 171 140 177 160 4 11 -8 44 -27 81 -18 34 -51 96 -73 138
-144 272 -152 282 -187 248 -7 -7 -40 -33 -73 -57 -33 -24 -80 -60 -105 -80
-26 -21 -79 -48 -125 -64 -44 -16 -102 -39 -130 -52 -122 -57 -360 -84 -490
-56 -96 21 -241 98 -306 162 -63 63 -141 211 -159 301 -6 30 -15 73 -20 97
-18 78 -13 141 30 362 6 30 21 78 34 105 13 28 38 79 54 115 55 118 261 302
386 344 68 23 266 56 336 56 72 0 254 -36 301 -61 20 -10 48 -32 63 -49 22
-27 26 -41 26 -93 0 -33 -5 -76 -12 -94 -10 -29 -10 -36 2 -43 24 -15 577 -13
587 3 27 43 44 153 50 338 l6 197 -30 63 c-31 65 -145 192 -184 204 -10 4 -43
21 -74 39 -30 19 -75 37 -99 40 -24 4 -88 23 -142 42 l-99 36 -260 3 c-143 2
-291 0 -330 -5z M15080 4681 c-41 -3 -84 -11 -95 -17 -11 -7 -39 -15 -62 -19
-24 -4 -45 -11 -48 -15 -3 -5 -31 -14 -63 -20 -64 -14 -159 -48 -182 -66 -8
-6 -37 -21 -63 -33 -27 -11 -62 -32 -79 -46 -16 -14 -34 -25 -40 -25 -6 0 -30
-17 -53 -37 -23 -21 -61 -49 -85 -63 -87 -52 -352 -343 -395 -434 -5 -12 -26
-48 -46 -81 -20 -33 -45 -85 -54 -115 -10 -30 -26 -73 -36 -95 -26 -58 -56
-153 -63 -204 -4 -24 -14 -57 -23 -75 -14 -26 -17 -65 -17 -261 0 -197 3 -236
18 -275 10 -25 21 -63 26 -85 9 -50 31 -108 59 -160 11 -22 21 -43 21 -48 0
-30 65 -134 124 -201 127 -141 262 -266 288 -266 10 0 106 -42 150 -66 28 -15
111 -42 236 -76 62 -17 114 -22 262 -25 172 -4 212 -1 345 26 82 17 251 64
275 76 61 33 140 65 158 65 11 0 44 18 73 40 30 22 58 40 64 40 6 0 24 14 41
31 16 17 43 38 59 46 17 9 55 39 85 67 30 29 76 65 102 81 25 17 57 47 70 68
13 21 38 55 57 75 18 20 40 50 48 65 8 16 39 59 69 95 30 37 57 78 60 92 4 14
31 76 61 139 30 63 57 131 60 150 3 20 9 41 14 46 4 6 19 47 33 90 49 161 54
552 7 685 -10 30 -24 73 -30 95 -6 22 -21 56 -32 75 -12 19 -45 78 -72 130
-66 125 -81 144 -197 246 -142 124 -224 175 -340 209 -25 7 -83 27 -130 45
l-85 31 -250 3 c-137 2 -284 1 -325 -3z m340 -645 c89 -16 146 -43 217 -104
117 -101 159 -176 193 -346 12 -58 12 -252 1 -316 -14 -73 -43 -182 -60 -225
-52 -129 -257 -367 -356 -414 -22 -10 -76 -36 -120 -57 -97 -45 -195 -68 -295
-68 -138 0 -234 30 -354 110 -60 40 -55 35 -107 99 -43 53 -82 124 -98 177 -5
18 -17 51 -25 73 -20 53 -21 296 -2 380 25 108 33 132 61 191 54 112 117 199
211 292 53 50 100 92 105 92 6 0 27 13 47 30 74 59 291 112 427 104 44 -2 114
-10 155 -18z M18105 4681 c-66 -8 -142 -28 -210 -56 -17 -7 -46 -16 -65 -19
-91 -19 -218 -80 -335 -161 -128 -89 -184 -125 -194 -125 -6 0 -16 -10 -22
-22 -6 -13 -45 -55 -85 -94 -41 -39 -74 -75 -74 -80 0 -5 -33 -46 -73 -90 -50
-57 -81 -103 -101 -150 -16 -38 -39 -85 -53 -105 -46 -70 -121 -272 -138 -374
-4 -22 -14 -64 -22 -94 -11 -40 -16 -106 -16 -245 0 -200 10 -267 64 -431 28
-85 96 -223 134 -270 17 -22 40 -53 50 -70 31 -49 106 -125 170 -171 34 -23
69 -52 79 -63 11 -12 25 -21 33 -21 8 0 31 -9 51 -20 91 -48 180 -81 327 -120
66 -18 117 -23 286 -27 187 -5 217 -3 310 17 144 30 367 99 420 129 9 5 34 14
55 20 22 6 64 26 94 45 30 19 84 51 119 73 76 46 251 199 251 219 0 8 -8 27
-19 42 -26 39 -135 241 -151 281 -7 18 -23 45 -34 60 -12 14 -26 35 -32 46 -6
11 -19 21 -28 23 -16 3 -75 -35 -133 -85 -14 -13 -32 -23 -39 -23 -8 0 -31
-15 -51 -34 -45 -40 -105 -71 -154 -80 -20 -3 -73 -22 -117 -41 -52 -23 -96
-35 -125 -35 -25 0 -57 -4 -71 -10 -15 -5 -61 -12 -104 -16 -116 -10 -208 15
-357 95 -72 39 -94 55 -133 101 -48 55 -58 75 -116 224 l-47 119 0 139 c0 139
11 199 56 303 7 17 16 46 20 65 4 19 14 44 21 55 8 11 14 26 14 33 0 26 119
166 197 233 142 121 172 134 401 173 l132 23 123 -19 c148 -24 221 -55 249
-108 15 -30 17 -48 12 -123 -6 -71 -4 -91 7 -98 8 -5 139 -9 291 -9 324 0 301
-9 314 125 3 44 13 97 20 118 9 24 14 89 15 170 l2 132 -44 83 c-44 84 -45 86
-185 190 -44 32 -135 71 -209 90 -22 5 -80 22 -130 37 -86 26 -101 27 -335 30
-135 2 -277 0 -315 -4z M10565 4650 c-360 -5 -371 -6 -410 -28 -21 -12 -44
-22 -50 -22 -18 0 -51 -42 -74 -93 -27 -64 -68 -245 -75 -332 -2 -38 -21 -150
-40 -247 -20 -98 -36 -197 -36 -220 -1 -24 -8 -74 -16 -113 -35 -164 -43 -214
-44 -275 -1 -85 -12 -142 -27 -147 -15 -5 -44 53 -71 143 -12 39 -32 86 -44
105 -13 19 -37 64 -55 99 -17 36 -56 115 -86 175 -29 61 -56 121 -60 135 -3
14 -22 50 -40 81 -19 32 -37 69 -41 84 -4 14 -20 44 -36 66 -16 22 -32 54 -36
72 -3 17 -22 53 -40 80 -19 27 -34 56 -34 65 0 28 -127 288 -165 338 l-26 34
-298 0 c-227 0 -301 -3 -309 -12 -6 -7 -13 -31 -17 -53 -3 -22 -10 -60 -15
-85 -5 -25 -14 -85 -20 -135 -6 -49 -20 -126 -30 -170 -10 -44 -23 -127 -29
-185 -20 -205 -32 -306 -46 -380 -8 -41 -23 -122 -34 -180 -11 -58 -22 -134
-26 -170 -3 -36 -12 -94 -20 -130 -23 -106 -44 -221 -50 -280 -8 -78 -25 -189
-35 -230 -5 -19 -11 -47 -15 -62 -3 -14 -17 -40 -31 -57 l-26 -31 -342 0
c-272 0 -346 3 -361 14 -17 13 -18 18 -2 137 10 68 17 140 17 160 0 19 5 40
12 47 6 6 17 53 24 104 26 198 45 315 59 358 8 25 20 104 25 175 6 72 18 162
26 202 7 40 14 90 14 111 0 22 6 57 13 78 8 22 17 68 20 104 11 103 4 101 289
100 164 -1 244 2 253 10 7 6 16 41 20 78 4 37 13 91 21 120 8 28 21 108 29
176 8 67 17 130 20 138 4 9 -1 23 -10 32 -15 15 -94 16 -860 16 -794 0 -845
-1 -853 -17 -15 -30 -31 -124 -36 -208 -2 -44 -11 -107 -20 -140 -9 -33 -17
-91 -18 -130 l-3 -70 249 -3 c151 -1 254 -6 262 -13 21 -17 3 -155 -50 -391
-8 -34 -18 -108 -21 -163 -4 -55 -13 -112 -21 -126 -7 -14 -16 -54 -20 -90 -4
-35 -11 -75 -16 -89 -5 -14 -14 -81 -19 -148 -5 -73 -16 -136 -24 -153 -9 -16
-20 -64 -25 -106 -6 -43 -12 -84 -15 -93 -2 -8 -9 -55 -15 -105 -7 -65 -14
-93 -27 -102 -12 -10 -81 -13 -258 -13 -281 0 -269 4 -280 -100 -4 -36 -13
-90 -21 -121 -9 -35 -14 -110 -14 -198 0 -130 2 -141 20 -151 13 -7 387 -10
1212 -8 1160 3 1195 4 1251 23 46 16 68 31 101 70 61 72 86 134 97 245 5 52
16 118 24 145 8 28 20 91 26 140 22 191 29 233 50 325 11 52 25 135 29 183 5
49 14 112 20 142 6 29 10 89 9 132 -3 77 3 103 21 103 13 0 46 -68 54 -111 3
-19 28 -78 55 -130 134 -255 179 -349 186 -377 3 -18 11 -34 16 -38 10 -6 69
-125 69 -138 0 -4 13 -26 29 -49 16 -23 33 -59 39 -79 6 -21 20 -51 31 -67 12
-16 21 -33 21 -39 0 -5 7 -15 15 -22 8 -7 17 -28 21 -49 4 -20 23 -65 44 -101
20 -36 40 -77 43 -91 4 -14 18 -41 31 -60 28 -38 39 -60 52 -104 16 -53 32
-55 341 -53 199 2 285 6 294 15 13 13 25 64 40 173 5 41 17 101 25 133 8 31
17 94 20 140 3 45 11 111 19 147 8 36 17 108 20 160 3 52 12 115 20 140 19 59
55 271 55 322 0 22 9 75 20 117 20 80 56 294 66 396 3 33 12 76 19 95 8 19 19
84 24 144 12 114 33 169 71 181 10 3 55 5 100 3 95 -3 110 7 110 79 0 24 7 57
15 73 8 16 20 71 25 123 6 53 15 110 20 129 14 48 12 154 -2 164 -7 5 -179 7
-383 4z M19746 4637 c-14 -10 -21 -34 -27 -93 -4 -43 -15 -103 -23 -132 -18
-63 -42 -293 -33 -316 5 -13 24 -16 115 -16 144 0 147 -2 139 -106 -3 -44 -13
-96 -22 -116 -8 -21 -15 -50 -15 -65 0 -15 -6 -57 -14 -93 -8 -36 -20 -114
-26 -175 -6 -60 -17 -141 -25 -180 -7 -38 -16 -122 -20 -185 -5 -78 -12 -120
-22 -131 -8 -10 -18 -55 -23 -105 -5 -49 -14 -105 -20 -124 -5 -19 -10 -55
-10 -79 0 -24 -6 -67 -14 -95 -8 -28 -20 -70 -26 -93 l-11 -43 -130 0 c-125 0
-130 -1 -138 -22 -18 -47 -33 -116 -46 -213 -8 -55 -19 -127 -25 -160 -24
-136 -24 -157 -5 -172 15 -10 129 -13 597 -13 l578 0 18 30 c23 36 47 150 61
285 6 55 16 131 22 169 5 38 8 75 5 82 -4 11 -33 14 -129 14 -82 0 -127 4
-135 12 -16 16 -15 44 2 76 21 40 45 171 56 309 6 67 16 150 24 185 8 35 17
106 21 158 4 52 14 111 22 130 8 19 18 67 23 105 19 164 33 255 51 340 11 50
24 126 28 169 6 51 15 84 24 91 9 6 69 12 143 13 70 1 131 5 134 9 4 5 13 49
19 98 7 50 19 118 27 152 8 34 14 74 14 89 0 14 7 50 16 80 8 29 14 73 12 96
l-3 43 -595 3 c-486 2 -599 0 -614 -11z M21203 4638 c-26 -34 -53 -121 -53
-170 0 -29 -7 -84 -15 -123 -8 -38 -15 -86 -15 -106 0 -19 -7 -57 -16 -82 -24
-70 -14 -77 102 -77 85 0 94 -2 105 -22 13 -24 4 -224 -12 -267 -6 -14 -14
-82 -19 -153 -5 -73 -15 -139 -23 -155 -8 -16 -18 -53 -22 -83 -3 -30 -12 -86
-20 -125 -7 -38 -16 -113 -20 -165 -4 -53 -14 -108 -22 -125 -9 -16 -20 -61
-24 -100 -18 -170 -32 -255 -49 -320 -11 -38 -24 -123 -30 -187 -6 -64 -15
-131 -20 -150 -6 -18 -10 -65 -10 -104 0 -92 31 -154 88 -177 93 -37 131 -39
822 -35 781 4 745 0 836 94 60 63 79 108 94 233 6 47 18 106 26 130 8 25 14
58 14 75 0 17 10 78 22 136 12 58 19 113 15 123 -6 16 -32 17 -296 17 -335 0
-306 10 -337 -113 -12 -51 -24 -74 -47 -93 l-30 -25 -209 3 c-253 4 -242 -2
-234 128 2 47 12 102 20 123 9 20 19 65 22 100 4 34 12 85 19 112 8 28 16 97
20 155 4 58 13 139 21 180 8 41 14 90 14 109 0 19 9 67 19 105 18 62 30 147
60 396 5 36 15 81 23 101 9 20 19 86 23 150 3 63 15 144 26 180 28 99 26 166
-10 219 -15 23 -50 55 -77 71 l-49 29 -361 0 c-278 0 -364 -3 -371 -12z M3160
4310 c-14 -4 -70 -9 -125 -9 -55 -1 -154 -8 -220 -17 -66 -8 -194 -21 -285
-29 -91 -7 -199 -21 -240 -30 -79 -17 -229 -41 -342 -54 -37 -4 -77 -15 -90
-23 -13 -8 -47 -18 -77 -22 -78 -10 -232 -46 -261 -61 -14 -7 -48 -16 -75 -20
-28 -4 -70 -13 -95 -20 -25 -7 -67 -16 -94 -20 -27 -4 -87 -21 -135 -39 -47
-18 -106 -36 -131 -39 -25 -3 -70 -17 -100 -31 -30 -14 -81 -32 -112 -40 -31
-8 -67 -20 -80 -28 -13 -7 -41 -18 -63 -23 -25 -7 -41 -18 -43 -29 -3 -16 3
-17 60 -13 81 5 215 34 250 53 15 8 65 19 110 24 46 6 133 21 193 36 61 14
148 30 195 35 89 10 219 25 332 39 37 5 75 13 86 19 22 12 762 42 1182 48 167
3 318 0 365 -6 44 -6 194 -15 333 -21 157 -6 271 -15 300 -24 72 -21 148 -35
245 -46 49 -5 113 -16 143 -25 30 -8 78 -22 107 -30 28 -8 86 -20 127 -27 41
-6 86 -20 99 -30 13 -10 35 -18 49 -18 13 0 45 -7 71 -15 25 -8 77 -24 115
-35 128 -39 178 -64 384 -197 99 -64 139 -106 187 -196 54 -100 42 -303 -24
-406 -8 -13 -25 -48 -37 -77 -11 -29 -32 -67 -45 -84 -41 -54 -162 -180 -174
-180 -6 0 -32 -20 -58 -45 -48 -45 -130 -105 -143 -105 -4 0 -16 -8 -27 -18
-19 -17 -62 -40 -274 -147 -62 -31 -115 -61 -119 -66 -3 -5 -14 -9 -25 -9 -12
0 -52 -14 -90 -31 -67 -29 -146 -58 -272 -99 -32 -10 -64 -23 -70 -28 -7 -5
-31 -12 -55 -15 -44 -5 -60 -13 -50 -23 11 -10 72 -6 233 14 181 24 295 46
334 66 14 8 53 17 86 21 76 9 161 32 200 55 17 10 58 20 93 24 35 3 72 11 83
17 11 6 42 17 67 24 137 39 190 57 219 70 17 8 36 15 42 15 7 0 29 9 51 20 22
11 52 20 67 20 16 0 37 6 48 14 11 7 33 16 49 20 16 4 41 16 54 27 14 10 32
19 40 19 8 0 33 15 56 34 23 18 52 37 66 41 14 4 43 22 65 40 22 18 51 36 65
40 48 15 192 181 239 275 18 36 40 79 49 95 14 25 17 61 16 220 0 205 -3 216
-68 310 -63 91 -215 265 -231 265 -5 0 -35 18 -65 40 -30 22 -68 46 -85 53
-16 8 -43 25 -60 39 -16 14 -41 29 -55 33 -14 4 -54 22 -90 40 -36 19 -105 45
-155 60 -49 14 -101 32 -115 39 -27 15 -145 50 -200 61 -19 4 -44 13 -55 20
-12 7 -50 18 -85 24 -67 11 -214 40 -335 65 -38 8 -113 17 -165 21 -52 3 -141
12 -196 20 -56 8 -171 20 -255 27 -180 14 -873 20 -909 8z M2873 3923 c-40 -5
-42 -20 -7 -33 25 -10 211 -29 504 -52 80 -6 151 -16 159 -22 8 -6 53 -16 100
-22 250 -32 382 -58 476 -90 39 -14 92 -29 119 -35 27 -5 70 -22 95 -38 25
-16 60 -33 76 -37 17 -4 46 -20 66 -35 20 -16 48 -33 63 -39 70 -26 166 -144
200 -244 34 -102 9 -303 -53 -427 -17 -34 -31 -69 -31 -77 0 -33 -76 -126
-207 -252 -76 -73 -154 -140 -173 -149 -63 -29 -170 -104 -170 -119 0 -11 9
-13 38 -9 77 11 149 29 202 52 76 32 182 65 209 65 12 0 56 18 97 40 42 22 84
40 94 40 10 0 21 4 24 9 3 4 36 23 73 42 37 18 86 48 108 65 22 17 51 35 65
39 43 13 200 118 200 134 0 3 17 24 37 46 21 22 56 67 78 99 22 33 48 71 58
85 12 18 16 36 12 58 -4 21 0 44 11 64 17 34 16 46 -14 161 -28 109 -128 235
-227 285 -27 14 -62 34 -77 44 -15 11 -44 26 -65 33 -21 7 -61 27 -89 44 -28
16 -71 33 -95 37 -24 4 -51 13 -59 20 -25 20 -110 46 -200 60 -47 7 -98 18
-115 23 -16 6 -61 13 -98 17 -38 3 -85 12 -105 20 -36 14 -131 27 -327 45 -55
5 -172 18 -260 30 -124 16 -227 22 -460 25 -165 2 -315 1 -332 -2z M2000 3790
c-233 -12 -543 -39 -553 -49 -16 -16 153 -30 443 -36 157 -3 312 -10 345 -15
33 -6 121 -14 195 -20 123 -9 217 -23 340 -51 25 -6 77 -15 115 -20 39 -5 86
-15 105 -23 46 -18 141 -46 210 -61 110 -25 185 -47 200 -60 8 -8 29 -17 45
-21 17 -4 39 -13 50 -20 11 -8 27 -14 36 -14 9 0 24 -9 34 -20 10 -11 27 -22
39 -26 41 -13 107 -66 156 -125 41 -49 50 -67 50 -97 -1 -20 -6 -46 -13 -57
-37 -62 -93 -128 -121 -142 -17 -9 -54 -34 -83 -57 -55 -43 -105 -80 -182
-133 -25 -17 -66 -46 -91 -64 -25 -18 -69 -45 -99 -61 -29 -15 -70 -41 -90
-56 -59 -46 -238 -165 -283 -189 -23 -13 -58 -36 -78 -51 -19 -16 -46 -35 -60
-42 -14 -7 -41 -27 -61 -44 -20 -17 -58 -47 -84 -66 -26 -19 -60 -47 -75 -62
-15 -15 -49 -39 -75 -53 -27 -14 -71 -47 -99 -74 -48 -46 -152 -141 -242 -221
-42 -38 -193 -210 -208 -238 -5 -9 -28 -38 -52 -63 -24 -26 -50 -62 -58 -80
-9 -19 -21 -43 -28 -54 -90 -142 -125 -216 -143 -293 -7 -31 -21 -79 -30 -107
-30 -88 -35 -110 -35 -164 0 -78 28 -79 117 -2 74 64 147 116 203 145 30 16
62 35 71 42 8 8 20 14 26 14 6 0 34 16 63 35 71 48 232 125 260 125 13 0 48
14 79 32 31 17 85 37 121 43 141 27 237 49 285 66 55 19 146 33 362 54 78 8
161 19 183 25 55 15 513 15 605 0 39 -6 135 -17 215 -25 232 -22 331 -35 400
-55 97 -27 199 -48 204 -42 3 3 -2 17 -11 33 -24 40 -322 187 -416 204 -20 4
-39 11 -42 15 -3 5 -24 11 -48 15 -23 4 -78 22 -122 40 -52 21 -107 35 -155
40 -43 4 -82 13 -92 22 -9 8 -40 18 -70 22 -29 4 -63 13 -75 19 -12 7 -57 12
-100 13 -43 0 -112 7 -153 15 -41 8 -109 19 -150 25 -41 6 -101 18 -134 28
-48 13 -61 21 -74 48 -13 27 -13 39 -3 75 17 56 97 175 137 202 17 11 65 49
107 84 41 35 95 76 118 92 24 17 64 45 89 64 25 19 73 50 108 68 35 18 103 66
152 106 50 39 94 72 100 72 5 0 24 13 42 28 18 15 53 41 78 56 51 33 290 269
290 286 0 7 9 23 20 37 11 14 20 37 20 52 0 14 9 40 20 56 25 37 28 141 5 185
-8 16 -20 52 -26 81 -9 43 -21 62 -73 114 -59 60 -123 105 -150 105 -7 0 -50
18 -95 41 -45 22 -99 43 -119 46 -20 3 -48 11 -62 18 -60 30 -139 54 -195 58
-33 3 -76 12 -95 20 -62 27 -169 47 -314 57 -78 6 -170 15 -206 21 -78 13
-815 19 -1020 9z M3930 1980 c0 -5 9 -10 20 -10 11 0 20 5 20 10 0 6 -9 10
-20 10 -11 0 -20 -4 -20 -10z M12434 1449 c-68 -6 -114 -36 -174 -110 -65 -81
-73 -116 -68 -280 l5 -148 32 -38 c60 -71 96 -105 139 -130 40 -24 48 -25 166
-22 l124 4 58 46 c33 26 75 68 94 95 l35 49 3 150 c2 94 -1 164 -8 188 -12 41
-68 108 -134 160 -36 29 -48 32 -126 37 -47 3 -112 2 -146 -1z m193 -159 c24
-14 36 -32 47 -71 28 -93 15 -284 -21 -320 -18 -18 -36 -25 -119 -46 -12 -3
-50 5 -84 18 -82 30 -91 50 -92 207 -2 134 13 181 66 213 44 27 159 26 203 -1z
M6146 1437 c-16 -12 -17 -39 -17 -347 1 -328 2 -335 22 -352 26 -22 111 -25
128 -5 16 20 17 683 0 703 -15 18 -109 19 -133 1z M6612 1438 c-14 -14 -17
-674 -3 -696 15 -24 83 -26 110 -5 24 20 24 20 25 236 1 118 4 219 8 223 13
12 47 -26 74 -85 15 -31 39 -74 54 -96 15 -22 41 -70 58 -107 17 -36 36 -69
41 -73 6 -3 17 -20 26 -38 32 -65 39 -70 114 -73 118 -4 111 -27 117 358 5
325 4 328 -17 349 -17 17 -29 20 -62 16 -23 -3 -46 -13 -53 -21 -7 -10 -10
-83 -8 -231 3 -218 1 -229 -33 -207 -6 4 -26 34 -43 67 -17 33 -37 67 -44 75
-7 8 -27 45 -44 81 -17 36 -45 83 -62 104 -16 21 -30 45 -30 54 0 9 -13 31
-29 49 -29 31 -33 32 -108 32 -48 0 -84 -5 -91 -12z M7568 1439 c-17 -9 -18
-37 -18 -349 0 -379 -2 -370 69 -370 21 0 43 6 49 13 7 8 13 101 16 248 2 128
5 235 5 237 1 1 7 2 14 2 12 0 57 -79 57 -101 0 -6 16 -30 35 -53 19 -24 35
-47 35 -51 0 -23 149 -260 178 -282 9 -7 42 -13 74 -13 99 0 98 -4 99 288 0
136 1 285 2 331 1 71 -2 85 -18 97 -22 17 -69 18 -96 3 -20 -10 -20 -19 -18
-237 2 -214 1 -227 -16 -227 -10 0 -23 9 -29 20 -6 11 -27 47 -48 81 -21 33
-38 65 -38 70 0 5 -16 29 -35 53 -19 24 -35 49 -35 56 0 7 -10 25 -22 41 -13
15 -36 55 -53 89 l-30 60 -80 2 c-44 2 -88 -2 -97 -8z M8628 1413 c-65 -45
-119 -105 -139 -153 -10 -25 -14 -77 -14 -182 l1 -147 32 -43 c18 -24 41 -55
50 -70 9 -15 28 -32 42 -38 14 -5 38 -20 53 -32 24 -20 42 -23 128 -26 141 -5
198 17 278 105 69 77 91 140 91 261 0 96 -21 169 -66 232 -74 103 -133 130
-287 130 l-114 0 -55 -37z m271 -122 c15 -11 41 -46 58 -78 39 -73 42 -150 11
-236 -23 -65 -55 -96 -116 -116 -38 -13 -49 -12 -97 3 -30 9 -67 28 -83 41
l-27 23 0 149 c0 140 1 150 23 178 35 44 60 54 135 55 53 0 75 -5 96 -19z
M9362 1438 c-16 -16 -15 -43 3 -78 8 -16 20 -53 26 -82 6 -29 18 -60 26 -69
15 -18 36 -85 59 -189 18 -82 44 -158 67 -190 9 -13 17 -34 17 -45 0 -45 24
-60 97 -61 37 -1 75 2 84 7 16 8 69 152 69 187 0 10 7 27 15 38 8 10 15 32 15
47 0 15 11 49 25 75 14 26 25 54 25 63 0 14 18 65 66 189 17 44 18 92 2 108
-16 16 -100 15 -122 -1 -11 -8 -26 -50 -41 -112 -13 -55 -35 -127 -50 -159
-14 -33 -30 -88 -34 -123 -8 -65 -28 -100 -53 -91 -13 6 -66 152 -89 248 -7
30 -21 69 -31 85 -10 17 -18 40 -18 52 0 26 -18 71 -38 96 -18 20 -101 24
-120 5z M10382 1434 c-15 -10 -22 -25 -22 -47 0 -18 -8 -44 -17 -57 -22 -30
-63 -129 -63 -150 0 -8 -7 -28 -16 -45 -19 -36 -51 -125 -65 -180 -6 -22 -16
-47 -24 -55 -7 -8 -21 -46 -30 -84 -17 -67 -17 -70 1 -83 23 -17 111 -8 135
13 8 7 21 36 28 63 20 78 32 85 163 82 61 -1 115 -4 120 -7 4 -3 17 -36 29
-75 12 -41 29 -73 39 -79 46 -24 140 -4 140 29 0 9 -29 78 -61 147 -10 22 -19
53 -19 68 0 15 -9 45 -21 67 -22 44 -89 257 -89 284 0 10 -14 42 -31 71 l-30
54 -73 0 c-49 0 -79 -5 -94 -16z m112 -218 c14 -25 26 -57 26 -71 0 -15 8 -40
18 -57 16 -28 16 -30 -2 -44 -12 -8 -43 -14 -77 -14 -68 0 -87 15 -71 57 6 16
13 44 15 63 5 37 43 110 57 110 4 0 20 -20 34 -44z M10978 1439 c-21 -12 -25
-98 -6 -117 7 -7 44 -12 95 -12 71 0 84 -3 93 -19 6 -12 10 -118 10 -273 0
-289 1 -293 69 -293 71 0 70 -1 72 285 0 140 5 265 10 277 8 21 14 23 92 23
51 0 88 5 95 12 20 20 15 85 -8 108 -19 19 -33 20 -262 20 -147 0 -250 -5
-260 -11z M11775 1436 c-18 -13 -19 -30 -16 -352 1 -187 6 -343 10 -347 5 -5
27 -11 49 -14 32 -4 44 -1 61 16 21 21 21 28 21 356 0 320 -1 335 -19 345 -28
14 -84 12 -106 -4z M13160 1430 c-7 -14 -10 -129 -8 -351 3 -316 4 -331 23
-345 20 -15 71 -11 90 8 6 5 11 101 13 234 3 204 5 225 20 222 9 -2 27 -23 39
-47 12 -24 28 -51 36 -60 7 -9 20 -31 27 -49 7 -18 26 -51 42 -74 17 -22 47
-75 68 -117 54 -108 72 -122 160 -126 110 -5 110 -5 111 213 1 97 3 240 5 317
3 176 -5 195 -82 195 -68 0 -69 -4 -66 -249 2 -240 -3 -265 -43 -217 -13 17
-47 75 -75 130 -28 56 -71 135 -95 176 -24 41 -51 89 -60 107 -21 44 -42 53
-124 53 -60 0 -72 -3 -81 -20z M14492 1438 c-9 -9 -12 -100 -12 -349 0 -388
-3 -375 81 -367 83 8 79 -13 79 369 l0 339 -26 10 c-35 14 -108 12 -122 -2z
M14967 1432 c-15 -17 -16 -51 -11 -353 4 -184 10 -338 14 -342 3 -4 22 -10 42
-13 66 -11 68 -3 68 257 0 300 5 301 138 34 22 -44 54 -97 71 -119 17 -21 31
-42 31 -47 0 -4 14 -30 31 -58 35 -56 65 -71 139 -71 88 0 84 -18 88 363 l4
335 -23 16 c-29 20 -69 21 -95 2 -18 -14 -19 -28 -19 -248 0 -200 -2 -233 -15
-233 -8 0 -22 14 -31 31 -8 17 -29 53 -47 81 -18 27 -32 56 -32 63 0 7 -15 34
-34 60 -19 27 -45 72 -57 102 -13 29 -33 66 -46 81 -13 16 -23 35 -23 42 0 24
-35 35 -108 35 -54 0 -72 -4 -85 -18z M16473 1442 c-36 -12 -113 -70 -113 -86
0 -8 -8 -21 -19 -28 -10 -7 -29 -33 -42 -58 -22 -42 -24 -56 -24 -196 l1 -150
33 -52 c47 -73 121 -138 168 -146 21 -3 76 -6 123 -5 67 0 95 5 130 22 44 22
45 23 42 67 -4 66 -17 75 -82 56 -30 -9 -68 -16 -86 -16 -53 0 -118 34 -158
83 l-36 44 0 101 c0 57 4 104 10 107 6 4 19 24 30 45 29 57 73 80 154 80 40 0
79 -6 96 -15 36 -19 54 -12 81 31 26 42 20 77 -18 101 -20 13 -52 18 -147 20
-67 1 -131 -1 -143 -5z M16997 1443 c-14 -14 -6 -50 18 -83 14 -19 25 -42 25
-51 0 -9 15 -39 33 -65 117 -174 140 -240 135 -393 -3 -112 7 -126 83 -125 72
1 68 -11 73 230 1 51 7 70 39 121 20 34 37 67 37 74 0 7 18 38 39 69 22 31 43
68 46 83 4 15 11 30 16 33 5 2 13 23 19 45 15 54 2 69 -59 69 -41 0 -50 -4
-72 -32 -39 -52 -68 -102 -69 -117 0 -25 -55 -100 -72 -101 -18 0 -50 51 -110
173 -13 27 -35 55 -50 63 -27 14 -119 19 -131 7z M17845 1434 c-14 -14 -15
-54 -13 -350 2 -256 6 -336 16 -346 9 -9 64 -14 196 -17 176 -3 185 -2 205 18
27 27 28 82 2 105 -16 14 -44 19 -142 22 -83 3 -125 8 -131 17 -4 6 -8 131 -8
278 0 192 -3 268 -12 277 -18 18 -94 15 -113 -4z M18535 1436 c-18 -13 -19
-30 -17 -347 3 -280 5 -336 18 -349 9 -10 34 -15 70 -15 38 0 58 5 64 15 6 9
10 157 10 352 0 323 -1 338 -19 348 -28 14 -104 12 -126 -4z M19008 1440 c-17
-10 -18 -38 -18 -350 0 -382 -1 -378 69 -365 60 11 62 17 61 250 0 115 -1 218
0 228 0 26 29 20 40 -9 6 -15 19 -38 29 -53 33 -47 81 -141 81 -160 0 -10 17
-40 39 -67 21 -27 44 -61 52 -75 63 -119 63 -119 157 -119 39 0 57 5 72 20 19
19 20 33 20 349 0 366 1 361 -65 361 -64 0 -65 -6 -65 -261 0 -126 -3 -229 -7
-229 -17 0 -32 17 -57 65 -59 109 -79 141 -107 177 -16 20 -29 43 -29 50 0 7
-7 22 -16 33 -8 11 -19 35 -24 55 -6 19 -23 51 -39 70 -28 33 -33 35 -103 38
-40 1 -81 -2 -90 -8z M19942 1435 l-23 -17 2 -321 c1 -192 6 -330 12 -344 13
-29 39 -33 182 -28 175 6 241 31 324 122 58 64 81 130 81 237 0 122 -26 198
-87 258 -26 25 -73 59 -103 74 -52 27 -63 28 -210 32 -132 3 -158 1 -178 -13z
m331 -152 c38 -19 51 -35 83 -103 13 -27 15 -53 11 -113 -6 -84 -28 -140 -68
-169 -30 -22 -188 -43 -204 -27 -11 11 -13 394 -2 424 6 15 16 17 75 13 38 -3
83 -13 105 -25z M20816 1434 c-14 -13 -16 -59 -16 -345 0 -310 1 -330 19 -348
17 -17 35 -19 187 -19 198 0 214 6 214 68 0 47 -20 70 -63 71 -93 1 -170 8
-177 16 -12 12 -19 128 -9 144 6 10 37 15 111 17 57 2 109 9 116 14 15 13 16
90 0 106 -8 8 -47 12 -108 12 -61 0 -100 4 -108 12 -19 19 -16 114 4 122 9 3
60 6 113 6 82 0 101 3 114 18 20 22 13 90 -11 110 -11 8 -66 12 -193 12 -148
0 -180 -3 -193 -16z M21511 1434 l-23 -16 5 -331 c4 -323 5 -331 26 -348 22
-18 95 -16 116 3 6 5 10 62 11 126 l1 117 41 3 c34 3 43 -1 59 -23 10 -14 35
-48 56 -75 20 -27 37 -53 37 -58 0 -5 6 -15 14 -21 8 -7 18 -26 21 -42 4 -16
11 -31 16 -34 18 -12 123 -14 136 -3 19 16 16 45 -9 67 -12 12 -31 36 -42 55
-12 19 -36 56 -54 82 -52 74 -52 94 0 151 53 57 68 106 57 184 -10 73 -13 78
-70 123 -63 48 -94 55 -249 56 -100 0 -130 -3 -149 -16z m290 -150 c39 -24 41
-28 36 -62 -11 -65 -100 -116 -156 -89 -24 11 -26 18 -29 80 -2 42 2 74 9 83
19 24 94 17 140 -12z M22385 1436 c-52 -23 -93 -64 -109 -113 -20 -58 -20 -76
-1 -139 11 -40 24 -57 64 -87 27 -21 65 -46 84 -55 50 -25 126 -84 132 -104
10 -29 -4 -57 -37 -74 -34 -18 -75 -15 -188 10 -77 18 -90 11 -90 -48 0 -50 5
-58 50 -82 29 -16 57 -19 161 -19 l126 0 54 42 c46 36 57 50 72 100 18 56 18
61 2 117 -19 66 -78 131 -129 142 -36 8 -166 102 -166 120 0 7 11 25 24 41 22
26 29 28 87 25 35 -2 78 -10 96 -17 44 -19 60 -11 75 37 16 55 2 90 -42 105
-48 16 -227 16 -265 -1z"/>
</g>
</svg>
